<svg version="1.1"
	 xmlns="http://www.w3.org/2000/svg" xmlns:xlink="http://www.w3.org/1999/xlink" xmlns:a="http://ns.adobe.com/AdobeSVGViewerExtensions/3.0/"
	 viewBox="-57.938 -89.563 612 792">
<defs>
	<style>
		polygon { fill: none; stroke: #333; stroke-width: 18px }
		rect, path { fill: #333; }
	</style>
</defs>
<polygon points="9,9 9,601.875 487.125,601.875 487.125,185.938 291.563,9 "/>
<rect x="166.781" y="535.938" width="47.813" height="28.688"/>
<rect x="118.969" y="564.625" width="47.813" height="28.688"/>
<rect x="166.781" y="478.563" width="47.813" height="28.688"/>
<rect x="118.969" y="507.25" width="47.813" height="28.688"/>
<rect x="166.781" y="421.188" width="47.813" height="28.688"/>
<rect x="118.969" y="449.875" width="47.813" height="28.688"/>
<rect x="166.781" y="363.813" width="47.813" height="28.688"/>
<rect x="118.969" y="392.5" width="47.813" height="28.688"/>
<rect x="166.781" y="306.438" width="47.813" height="28.688"/>
<rect x="118.969" y="335.125" width="47.813" height="28.688"/>
<path d="M209.813,139.094h-76.5c-5.259,0-9.563,4.303-9.563,9.563v119.531c0,5.259,4.303,9.563,9.563,9.563h76.5 c5.259,0,9.563-4.303,9.563-9.563V148.656C219.375,143.397,215.072,139.094,209.813,139.094z M195.469,215.594h-47.813V163h47.813V215.594z"/>
</svg>
